<svg width="254" height="47" viewBox="0 0 254 47" fill="none" xmlns="http://www.w3.org/2000/svg">
<mask id="mask0_67_438" style="mask-type:luminance" maskUnits="userSpaceOnUse" x="0" y="0" width="49" height="47">
<path d="M48.3188 0H0V46.5051H48.3188V0Z" fill="white"/>
</mask>
<g mask="url(#mask0_67_438)">
<path d="M0 24.974C0 36.8648 9.65763 46.5041 21.5709 46.5041C32.4021 46.5041 41.3689 38.5362 42.9083 28.1527C43.0402 27.2636 41.9891 26.7195 41.2181 27.1838C39.0087 28.5144 36.4191 29.28 33.6506 29.28C25.5496 29.28 18.9824 22.7252 18.9824 14.6395C18.9824 11.0703 20.262 7.79948 22.3884 5.2591C22.966 4.56875 22.5872 3.44884 21.686 3.44419L21.5709 3.44385C9.65763 3.44385 0 13.0833 0 24.974Z" fill="#333333"/>
<path d="M48.4427 14.6405C48.4427 6.55481 41.8755 0 33.7745 0C30.9411 0 28.2955 0.801817 26.0527 2.19056C25.287 2.66457 25.6019 3.77897 26.4801 3.98032C35.63 6.0789 42.5195 14.1357 43.2083 23.471C43.2745 24.3673 44.3293 24.8466 44.9153 24.1642C47.1143 21.604 48.4427 18.2772 48.4427 14.6405Z" fill="#333333"/>
</g>
<path d="M84.2136 39C81.4224 39 78.984 38.4202 76.8982 37.2606C74.8125 36.0704 73.1869 34.4072 72.0212 32.2711C70.8863 30.1351 70.3188 27.6174 70.3188 24.7183C70.3188 21.8192 70.8863 19.3016 72.0212 17.1655C73.1562 15.0294 74.7664 13.3815 76.8522 12.2218C78.9379 11.0317 81.3917 10.4366 84.2136 10.4366C87.5875 10.4366 90.3941 11.2758 92.6332 12.9543C94.9029 14.6022 96.3905 16.9823 97.096 20.0951H91.897C91.3756 18.3252 90.4707 17.0282 89.1826 16.2042C87.925 15.3497 86.2687 14.9225 84.2136 14.9225C81.4836 14.9225 79.3366 15.777 77.7723 17.486C76.2386 19.1948 75.4719 21.6057 75.4719 24.7183C75.4719 27.8005 76.2386 30.2113 77.7723 31.9506C79.3366 33.6596 81.4836 34.5141 84.2136 34.5141C88.4771 34.5141 91.0996 32.6373 92.0811 28.8839H97.2801C96.6053 32.1491 95.1331 34.6515 92.8632 36.3908C90.5934 38.1302 87.7102 39 84.2136 39ZM114.413 39C111.561 39 109.061 38.4202 106.914 37.2606C104.797 36.0704 103.157 34.4072 101.991 32.2711C100.825 30.1351 100.243 27.6174 100.243 24.7183C100.243 21.8192 100.825 19.3016 101.991 17.1655C103.157 15.0294 104.797 13.3815 106.914 12.2218C109.061 11.0317 111.561 10.4366 114.413 10.4366C117.358 10.4366 119.873 11.0165 121.959 12.176C124.075 13.3357 125.701 14.9836 126.836 17.1197C128.001 19.2559 128.584 21.7887 128.584 24.7183C128.584 27.6174 128.001 30.1502 126.836 32.317C125.701 34.453 124.075 36.1009 121.959 37.2606C119.842 38.4202 117.327 39 114.413 39ZM114.413 34.5141C117.266 34.5141 119.474 33.6596 121.039 31.9506C122.634 30.2113 123.431 27.8005 123.431 24.7183C123.431 21.6057 122.634 19.1948 121.039 17.486C119.474 15.777 117.266 14.9225 114.413 14.9225C111.591 14.9225 109.383 15.7923 107.788 17.5316C106.193 19.2406 105.396 21.6361 105.396 24.7183C105.396 27.8005 106.193 30.2113 107.788 31.9506C109.383 33.6596 111.591 34.5141 114.413 34.5141ZM145.2 39C141.366 39 138.345 38.2066 136.137 36.6197C133.928 35.0329 132.717 32.8204 132.502 29.9825H137.609C137.824 31.6607 138.56 32.8966 139.817 33.6902C141.075 34.4836 142.931 34.8803 145.384 34.8803C149.678 34.8803 151.826 33.5376 151.826 30.8521C151.826 29.7535 151.488 28.9142 150.813 28.3346C150.169 27.7242 149.065 27.2816 147.501 27.007L141.474 25.9084C136.351 24.9624 133.79 22.5364 133.79 18.6302C133.79 16.0975 134.756 14.0985 136.689 12.6338C138.621 11.1691 141.259 10.4366 144.602 10.4366C148.068 10.4366 150.813 11.1843 152.838 12.6796C154.893 14.1749 156.058 16.2804 156.334 18.9965H151.32C151.013 17.4707 150.292 16.3416 149.157 15.6091C148.053 14.8768 146.489 14.5105 144.464 14.5105C142.593 14.5105 141.136 14.831 140.093 15.4718C139.081 16.1127 138.575 17.0434 138.575 18.2641C138.575 19.2101 138.897 19.9578 139.541 20.5071C140.216 21.0258 141.29 21.4225 142.762 21.6972L148.789 22.8416C151.488 23.3298 153.467 24.1996 154.724 25.4508C155.982 26.702 156.61 28.3802 156.61 30.4859C156.61 33.1713 155.629 35.2617 153.666 36.757C151.703 38.2523 148.881 39 145.2 39ZM163.174 38.4507V16.2957H160.505V10.9859H166.026V15.1971H168.235C169.032 13.6713 170.183 12.5118 171.686 11.7184C173.219 10.8944 175.06 10.4825 177.207 10.4825C179.385 10.4825 181.224 10.9097 182.727 11.764C184.261 12.6185 185.488 13.9308 186.409 15.7008H186.547C188.479 12.2218 191.654 10.4825 196.071 10.4825C199.475 10.4825 202.128 11.459 204.03 13.4119C205.931 15.365 206.882 18.0505 206.882 21.4684V38.4507H201.73V22.2006C201.73 17.379 199.368 14.9683 194.644 14.9683C189.951 14.9683 187.604 17.379 187.604 22.2006V38.4507H182.451V22.2006C182.451 17.379 180.091 14.9683 175.366 14.9683C173.066 14.9683 171.318 15.5938 170.121 16.845C168.925 18.0657 168.327 19.8509 168.327 22.2006V38.4507H163.174ZM214.445 38.4507V10.9859H219.597V38.4507H214.445ZM217.021 7.23234C216.162 7.23234 215.427 6.92731 214.813 6.3169C214.2 5.7065 213.893 4.97422 213.893 4.11972C213.893 3.26522 214.2 2.53294 214.813 1.92254C215.427 1.31213 216.162 1.0071 217.021 1.0071C217.881 1.0071 218.617 1.31213 219.23 1.92254C219.844 2.53294 220.149 3.26522 220.149 4.11972C220.149 4.97422 219.844 5.7065 219.23 6.3169C218.617 6.92731 217.881 7.23234 217.021 7.23234ZM227.325 38.4507V0H232.477V23.3451H232.661L245.959 10.9859H252.261L239.609 22.338L253.319 38.4507H247.063L236.112 25.4964L232.477 28.4261V38.4507H227.325Z" fill="#333333"/>
</svg>
