<svg xmlns="http://www.w3.org/2000/svg" xmlns:xlink="http://www.w3.org/1999/xlink" viewBox="0 0 264.58336 264.58333">
  <defs>
    <linearGradient xlink:href="#cg" id="cartridgeGrad" x1="197.23248" y1="215.64043" x2="128.43286" y2="61.113949" gradientUnits="userSpaceOnUse" gradientTransform="translate(479.14589,39.24443)"/>
    <linearGradient id="cg">
      <stop style="stop-color:#ffc753" offset="0"/>
      <stop style="stop-color:#ff755f" offset="0.7238372"/>
      <stop style="stop-color:#ff3caf" offset="1"/>
    </linearGradient>
  </defs>
  <g transform="translate(-1466.5854,1204.3833)">
    <g transform="matrix(0.81207635,0.36029926,-0.36029926,0.81207635,1137.4195,-1431.224)">
      <rect style="fill:url(#cartridgeGrad);fill-opacity:1;stroke:none" width="169.15034" height="123.50013" x="557.40344" y="115.87157"/>
      <path style="fill:none;stroke:#50506a;stroke-width:10;stroke-linecap:round" d="m 168.79437,151.10274 c -2.78702,3.55137 -8.19336,2.52699 -10.9567,-0.45544 -4.41909,-4.76945 -2.7671,-12.3177 2.01409,-16.15222 6.66638,-5.34643 16.47948,-3.02403 21.34773,3.57274 6.29943,8.53613 3.2895,20.65724 -5.13139,26.54325 -10.39418,7.26529 -24.8434,3.55975 -31.73876,-6.69004 -8.23841,-12.2462 -3.83289,-29.03457 8.24868,-36.93427 14.09472,-9.21603 33.22898,-4.10791 42.12979,9.80733 10.1966,15.94103 4.3842,37.4256 -11.36598,47.32531 -17.78586,11.17922 -41.62379,4.6614 -52.52082,-12.92464 -12.16333,-19.62965 -4.93927,-45.82316 14.48328,-57.71633 14.21886,-8.70675 32.5239,-8.522252 46.78382,-0.01" transform="translate(479.2354,34.780805)"/>
      <path style="fill:#4a4a60;fill-opacity:1;stroke:none" d="m 556.83365,49.710458 c -6.77278,10e-7 -12.43542,5.6647 -12.43542,12.437484 v 190.892738 0.004 c 0,6.77284 5.66072,12.4318 12.42767,12.4318 h 0.002 169.45891 0.002 c 6.77068,0 12.43387,-5.65636 12.43387,-12.42973 v -0.006 -176.585608 l -0.0548,-0.423747 c -0.71117,-5.595553 -5.18554,-10.059669 -10.78332,-10.758 l -0.41599,-0.05064 h -5.61516 v -4.005958 l -0.0315,-0.324528 c -0.5562,-5.748223 -5.08687,-10.401567 -10.79665,-11.126452 l -0.42375,-0.05478 z m 13.71803,72.490662 h 142.01665 c 3.4915,0 6.30246,2.81097 6.30246,6.30246 v 97.21629 c 0,3.49149 -2.81096,6.30246 -6.30246,6.30246 H 570.55168 c -3.4915,0 -6.30246,-2.81097 -6.30246,-6.30246 v -97.21629 c 0,-3.49149 2.81096,-6.30246 6.30246,-6.30246 z"/>
      <path style="fill:#c2c2cc;fill-opacity:1;stroke:none" d="m 556.83365,56.46095 c -3.15001,0 -5.68596,2.535946 -5.68596,5.685958 v 177.134922 0.004 c 0.002,3.1471 2.53568,5.68007 5.68286,5.68182 h 169.45581 0.003 c 3.14686,-0.002 5.68021,-2.53415 5.68286,-5.68079 v -0.005 -162.399387 c -0.3264,-2.56814 -2.35323,-4.590718 -4.92322,-4.911328 H 716.95608 A 1.8520833,1.8520833 0 0 1 715.104,70.119061 v -8.577254 c -0.25589,-2.644734 -2.30908,-4.748102 -4.92993,-5.080827 z m 13.71803,65.74017 h 142.01665 c 3.4915,0 6.30246,2.81097 6.30246,6.30246 v 97.21629 c 0,3.49149 -2.81096,6.30246 -6.30246,6.30246 H 570.55168 c -3.4915,0 -6.30246,-2.81097 -6.30246,-6.30246 v -97.21629 c 0,-3.49149 2.81096,-6.30246 6.30246,-6.30246 z"/>
      <path style="fill:#4a4a60;fill-opacity:1;stroke:none" d="m 551.14776,77.542496 v 5.187649 h 14.75156 c 1.169,-5e-6 2.11666,-1.20407 2.11666,-2.689358 -0.0415,-1.432526 -0.98919,-2.551048 -2.11666,-2.498291 z m 166.07307,0 c -1.169,-2e-6 -2.11667,1.204064 -2.11667,2.689357 0.0415,1.432532 0.98919,2.551056 2.11667,2.498292 h 14.75156 v -5.187649 z m -166.07307,9.709525 v 5.186993 h 11.57656 c 1.169,-5e-6 2.11666,-1.20407 2.11666,-2.689358 -0.0417,-1.432345 -0.98933,-2.550572 -2.11666,-2.497635 z m 169.24807,0 c -1.169,0 -2.11667,1.204064 -2.11667,2.689357 0.0417,1.43235 0.98933,2.550581 2.11667,2.497636 h 11.57656 V 87.252021 Z M 551.14776,96.96089 v 5.18699 h 14.75156 c 1.169,0 2.11666,-1.20407 2.11666,-2.689355 -0.0417,-1.432345 -0.98933,-2.550572 -2.11666,-2.497635 z m 166.07307,0 c -1.169,-2e-6 -2.11667,1.204064 -2.11667,2.689357 0.0417,1.432353 0.98933,2.550583 2.11667,2.497633 h 14.75156 v -5.18699 z"/>
      <rect style="fill:#4a4a60;fill-opacity:1;stroke:none" width="136.48053" height="36.652042" x="573.31976" y="71.518921" ry="18.326021"/>
      <rect style="fill:none;stroke:#4a4a60;stroke-width:3.6" width="154.62146" height="109.82122" x="564.24939" y="122.20108" ry="6.3023353"/>
    </g>
  </g>
</svg>
